<svg width="259" height="97" fill="none" xmlns="http://www.w3.org/2000/svg"><path d="M11.17 3.46c2.37 0 9.54-.06 12.09-.06 7.17 0 12.48 1.34 15.42 4.29 1.28 1.28 1.98 3.07 1.98 5.25 0 6.21-6.21 9.66-14.01 10.5v.19c7.62 1.15 11.07 3.14 12.42 9.54 1.15 5.44 1.47 6.33 2.82 6.33 1.09 0 2.24-1.6 3.07-5.57.13-.19 1.34.19 1.28.45-1.15 5.82-3.71 8.64-9.09 8.64-3.01 0-5.38-.77-6.85-2.3-1.92-1.92-2.94-4.54-3.97-10.37-1.09-5.25-2.11-6.14-5.25-6.14h-3.33c-.26 0-.32.06-.32.26-.06 5.12-.06 12.74-.06 14.14 0 1.47 0 1.92.19 2.11.19.19.77.26 4.93.38.26 0 .26 1.41 0 1.41-4.1-.13-15.04-.26-22.27-.06-.19 0-.26-1.41 0-1.41 3.84-.06 4.54-.13 4.74-.32.19-.26.32-1.09.32-2.88 0-9.28.13-14.21.13-16.45 0-5.5-.06-12.1-.06-13.25 0-2.43-.19-2.88-.32-3.07-.19-.19-.58-.19-4.8-.26-.19 0-.26-1.34.06-1.34h10.88v-.01Zm6.21 3.65c0 1.6.06 8.38.06 13.12 0 1.98 0 2.3.06 2.5.13.13.77.13 2.94.13 3.78 0 5.76-.7 6.72-2.62.64-1.28.9-3.07.9-7.04 0-2.69-.26-4.54-.9-5.82-.9-1.73-2.62-2.5-6.4-2.5-2.75 0-3.14 0-3.26.06-.12.12-.12.5-.12 2.17Z" fill="#203864"/><path d="M53.15 16.9c0 .64 3.26.9 3.26 4.48 0 2.75-2.18 4.42-4.93 4.42-2.88 0-4.93-1.73-4.93-4.48 0-1.54.51-2.69 1.66-3.84 1.86-1.79 4.93-3.14 10.11-3.14 5.7 0 8.77 1.34 10.75 3.33 2.11 2.11 2.75 5.06 2.75 8.64 0 2.82-.19 7.42-.19 12.22 0 1.34.45 1.79 1.28 1.79 1.09 0 2.18-1.47 2.69-5.18.06-.26 1.22-.06 1.22.26-.51 4.74-2.24 7.55-7.36 7.55-4.48 0-6.85-2.05-7.81-4.74-1.92 2.75-4.67 4.8-8.58 4.8-4.48 0-8.45-2.94-8.45-7.1 0-1.92.64-3.46 1.98-4.8 2.11-2.11 5.63-3.52 15.29-4.48.06-.9.06-3.2.06-5.12 0-2.05-.38-3.52-1.28-4.35-.77-.83-2.05-1.41-4.22-1.41-2.14 0-3.3.77-3.3 1.15Zm1.41 17.98c0 3.71.83 4.93 2.56 4.93s3.52-1.66 4.16-2.94c.32-.7.51-1.41.58-3.2.06-1.66.06-3.26.06-5.76-6.14.7-7.36 1.92-7.36 6.97Z" fill="#203864"/><path d="M79.14 38.47c-2.37-2.37-3.97-5.38-3.97-9.54 0-3.58 1.28-6.85 4.22-9.85 2.88-2.88 7.11-5 12.48-5 7.29 0 11.71 3.78 11.71 8.19 0 3.33-2.3 5.38-4.93 5.38s-4.61-1.92-4.61-4.22c0-1.22.32-2.18 1.09-2.94 1.54-1.54 3.9-1.09 4.29-1.47.64-.64-2.05-3.26-6.27-3.26-2.82 0-4.42 1.22-5.31 3.01-1.02 2.11-1.47 4.99-1.47 9.66 0 5.18.26 7.55 1.15 9.41.96 1.86 2.62 3.07 5.63 3.07 3.39 0 6.97-2.11 9.09-7.49.19-.38 1.47.26 1.34.64-2.18 5.7-6.46 9.09-12.54 9.09-4.67-.01-8.96-1.74-11.9-4.68Z" fill="#203864"/><path d="M103.08 42.37c-.19 0-.19-1.28 0-1.28 2.69-.06 3.84-.06 4.03-.32.19-.19.26-.83.32-2.62.06-1.98.06-3.71.06-5.95 0-2.5-.13-10.94-.26-13.63 0-1.02-.13-1.66-.32-1.86-.19-.19-.7-.26-4.03-.32-.13 0-.19-1.28 0-1.28 3.97-.06 10.62-.06 13.69-.06.58 0 .7.19.7.64v17.92c0 5.7.26 6.98.51 7.17.19.26.7.32 3.58.38.26 0 .32 1.28.06 1.28-1.32-.01-17.38-.07-18.34-.07Zm8.83-32.06c-3.46 0-5.5-2.56-5.5-5.12 0-1.41.51-2.56 1.47-3.46.96-1.02 2.5-1.73 4.8-1.73 3.07 0 5.44 2.05 5.44 4.74-.01 3.2-2.95 5.57-6.21 5.57Z" fill="#203864"/><path d="M119.78 41.15c2.62-.06 3.33-.06 3.52-.26.19-.26.32-1.02.32-5.44V20.93c0-2.56-.19-3.84-.45-4.1-.19-.26-.7-.32-3.46-.38-.19 0-.19-1.28.06-1.28 2.75 0 10.88-.06 13.57-.13.38 0 .45.19.45.64-.06 1.6-.13 4.86-.19 6.46l.19.06c2.18-4.54 4.93-8.13 9.98-8.13 5.38 0 8.13 3.2 8.13 9.34 0 2.69-.06 6.66-.06 10.5 0 5.38.13 6.66.38 6.91.19.26.77.26 3.14.38.26 0 .26 1.28 0 1.22-5.95-.13-12.09-.06-15.93 0-.32-.06-.26-1.28-.13-1.28 1.54-.13 2.11-.13 2.3-.32.19-.19.19-.7.19-2.69V22.47c0-2.18-.58-3.71-2.56-3.71-2.05 0-3.78 2.18-4.74 4.1-.64 1.28-.9 2.56-.9 4.8 0 1.66.06 8.45.06 10.69 0 1.73.06 2.3.26 2.5.19.19.7.19 2.69.32.26 0 .19 1.28-.06 1.28-5.25-.06-12.99-.06-16.77.06-.18-.08-.18-1.36.01-1.36Z" fill="#203864"/><path d="M167.46 56.45c-8.64 0-14.01-2.82-14.01-6.72 0-2.24 1.92-4.16 6.14-5.89-2.69-.96-4.1-2.69-4.1-4.8 0-1.47.64-2.69 1.66-3.78 1.09-1.09 2.82-2.24 4.74-3.26-3.9-1.34-6.85-4.03-6.78-8.19 0-1.92.7-3.78 2.24-5.31 2.3-2.24 6.34-3.9 11.65-3.97h.58c.83-1.79 1.79-4.35 3.65-6.21 1.28-1.28 2.75-2.11 5.12-2.11 3.26 0 4.8 1.92 4.8 3.9 0 1.92-1.47 3.14-3.26 3.14-.9 0-1.6-.26-2.18-.77-1.28-1.28-.45-3.2-1.02-3.78-.51-.51-1.6-.45-2.94.9-1.09 1.09-1.98 2.88-2.69 4.99 4.16.38 7.94 2.05 9.73 3.84 1.41 1.41 2.05 2.88 2.05 5.12 0 2.3-1.02 4.1-2.56 5.63-2.3 2.3-6.97 3.97-11.71 3.9-1.66 0-3.39-.19-4.99-.58-2.37 1.28-3.14 2.11-3.14 2.62 0 .58.64.96 2.5 1.28 2.62.38 5.89.64 10.75 1.15 5.44.45 8.25 1.41 9.86 3.01 1.15 1.15 1.86 2.82 1.86 4.74 0 2.56-.9 4.42-2.56 6.02-3.17 3.21-8.93 5.13-15.39 5.13Zm9.72-4.03c.9-.83 1.28-1.86 1.28-3.07 0-1.92-1.34-2.94-4.35-3.39-3.71-.45-6.46-.77-11.46-1.41-.51-.06-1.02-.13-1.47-.26-3.07 1.54-4.29 3.01-4.29 4.99 0 3.39 3.97 5.7 10.88 5.7 5 0 7.94-1.09 9.41-2.56Zm-4.6-34.69c-.58-1.09-1.6-1.79-3.58-1.79-2.94 0-4.35 2.69-4.35 8.13 0 3.2.32 4.86.83 5.95.58 1.15 1.47 1.86 3.39 1.86 3.14 0 4.35-2.94 4.35-8 0-3.52-.2-5.19-.64-6.15ZM32.48 59.47c.38 0 .77-.32 3.97-3.71.19-.19 1.09-.13 1.09.19-.26 4.35-.32 12.42-.26 15.74 0 .26-1.09.26-1.15 0-2.11-4.86-4.29-9.09-6.4-11.2-1.73-1.66-3.52-2.75-6.46-2.75-3.58 0-5.57 1.86-6.66 4.03-1.41 2.82-2.18 6.98-2.18 14.72 0 6.02.64 9.73 1.98 12.35 1.41 2.94 4.1 4.67 8.26 4.67 3.26 0 6.14-1.28 8.06-3.26 2.24-2.18 3.71-5.31 4.35-8.64.13-.26 1.54.13 1.41.38-.7 3.78-2.18 7.04-4.86 9.66C31.01 94.34 27.17 96 21.66 96c-6.4 0-11.52-2.11-15.17-5.82-3.2-3.2-5.31-7.62-5.31-13.25 0-5.44 1.79-10.3 5.57-14.08 3.84-3.9 8.96-6.91 15.55-6.91 6.28.01 9.61 3.53 10.18 3.53ZM66.91 91.4c-2.94 2.94-7.23 4.8-11.9 4.8-4.99 0-9.66-2.3-12.48-5.12-2.3-2.3-3.71-5.25-3.71-9.21 0-3.78 1.47-6.98 4.16-9.66 3.07-3.07 7.62-5.06 12.54-5.06 4.8 0 8.83 1.98 11.71 4.86 2.69 2.69 3.97 6.14 3.97 9.86 0 3.9-1.79 7.04-4.29 9.53Zm-7.8-20.8c-.7-1.41-1.73-2.11-3.65-2.11-2.11 0-3.39 1.15-4.03 2.56-.9 1.73-1.34 4.8-1.34 10.88 0 10.24 1.79 12.93 4.99 12.93 1.92 0 2.94-.77 3.71-2.24.83-1.66 1.34-4.35 1.34-13.18 0-5.06-.32-7.49-1.02-8.84Z" fill="#203864"/><path d="M84.07 53.84c.45 0 .58.26.58.7-.06 6.72-.06 12.93-.06 19.9 0 6.66-.06 12.1-.13 16.7 0 1.73.19 2.3.45 2.62.19.19.58.26 3.78.38.13 0 .19 1.34-.06 1.34-5.7-.19-12.22-.19-18.17-.19-.19 0-.19-1.28 0-1.28 2.88 0 3.46-.06 3.65-.26.19-.19.26-.58.26-1.73.06-3.01.19-8.83.19-12.86 0-8.9 0-14.98-.06-21.63-.06-1.47-.06-1.92-.26-2.11-.19-.19-.58-.26-3.78-.32-.26-.06-.19-1.28.06-1.28 3.69.02 9.64.08 13.55.02Z" fill="#203864"/><path d="M101.03 53.84c.45 0 .58.26.58.7-.06 6.72-.06 12.93-.06 19.9 0 6.66-.06 12.1-.13 16.7 0 1.73.19 2.3.45 2.62.19.19.58.26 3.78.38.13 0 .19 1.34-.06 1.34-5.7-.19-12.22-.19-18.17-.19-.19 0-.19-1.28 0-1.28 2.88 0 3.46-.06 3.65-.26.19-.19.26-.58.26-1.73.06-3.01.19-8.83.19-12.86 0-8.9 0-14.98-.06-21.63-.06-1.47-.06-1.92-.26-2.11-.19-.19-.58-.26-3.78-.32-.26-.06-.19-1.28.06-1.28 3.69.02 9.64.08 13.55.02ZM134.5 87.56c-2.3 5.95-7.3 8.64-12.67 8.64-5.38 0-10.17-2.05-13.05-4.93-2.37-2.37-3.78-5.12-3.78-9.41 0-3.52 1.54-7.04 4.1-9.6 3.07-3.07 6.91-5.12 11.84-5.12 4.48 0 7.81 1.66 10.24 4.03 2.18 2.18 3.71 5.5 3.78 10.18 0 .38-.13.51-.38.51-11.58 0-16.32.06-18.88.19.06 4.42.51 6.91 1.41 8.64 1.09 2.24 3.2 3.46 6.53 3.46 3.97 0 7.36-2.24 9.6-7.23.3-.25 1.32.32 1.26.64Zm-17.28-17.08c-.96 1.86-1.28 4.74-1.47 10.05l9.34-.13c-.19-8.83-1.34-11.9-4.61-11.9-1.66-.01-2.75.95-3.26 1.98ZM138.98 91.47c-2.37-2.37-3.97-5.38-3.97-9.54 0-3.58 1.28-6.85 4.22-9.85 2.88-2.88 7.1-4.99 12.48-4.99 7.3 0 11.71 3.78 11.71 8.19 0 3.33-2.3 5.38-4.93 5.38-2.62 0-4.61-1.92-4.61-4.22 0-1.22.32-2.18 1.09-2.94 1.54-1.54 3.9-1.09 4.29-1.47.64-.64-2.05-3.26-6.27-3.26-2.82 0-4.42 1.22-5.31 3.01-1.02 2.11-1.47 4.99-1.47 9.66 0 5.18.26 7.55 1.15 9.41.96 1.86 2.62 3.07 5.63 3.07 3.39 0 6.98-2.11 9.09-7.49.19-.38 1.47.26 1.34.64-2.18 5.7-6.46 9.09-12.54 9.09-4.67-.02-8.96-1.75-11.9-4.69Z" fill="#203864"/><path d="M175.9 95.95c-3.39 0-5.82-.9-7.49-2.62-1.47-1.41-2.24-3.14-2.24-6.91 0-3.65.13-11.33.32-16.64-.38-.06-3.26-.06-3.9-.06-.32 0-.26-1.47 0-1.47 4.35-.19 6.4-1.09 8.77-3.52 1.47-1.41 3.07-4.03 3.97-6.4.13-.32 1.28-.19 1.34.13-.06 2.05-.26 7.55-.32 9.73h7.49c.32-.06.26 1.6-.06 1.6-3.58-.06-6.53 0-7.42.06-.13 2.37-.26 11.13-.26 17.54 0 3.07.13 3.9.45 4.61.38.77 1.15 1.28 2.24 1.28 1.86 0 3.52-2.11 4.54-7.04.06-.26 1.41.06 1.34.38-1.09 6.13-3.52 9.33-8.77 9.33Z" fill="#203864"/><path d="M183.14 95.37c-.19 0-.19-1.28 0-1.28 2.69-.06 3.84-.06 4.03-.32.19-.19.26-.83.32-2.62.06-1.98.06-3.71.06-5.95 0-2.5-.13-10.94-.26-13.63 0-1.02-.13-1.66-.32-1.86-.19-.19-.7-.26-4.03-.32-.13 0-.19-1.28 0-1.28 3.97-.06 10.62-.06 13.7-.06.58 0 .7.19.7.64v17.92c0 5.7.26 6.98.51 7.17.19.26.7.32 3.58.38.26 0 .32 1.28.06 1.28-1.33-.01-17.39-.07-18.35-.07Zm8.83-32.06c-3.46 0-5.5-2.56-5.5-5.12 0-1.41.51-2.56 1.47-3.46.96-1.02 2.5-1.73 4.8-1.73 3.07 0 5.44 2.05 5.44 4.74-.01 3.2-2.95 5.57-6.21 5.57ZM198.37 68.11c5.25-.13 12.16.06 17.92 0 .38 0 .38 1.28.13 1.28-2.82.13-3.14.13-3.39.32-.19.26-.06.96.83 3.39 1.47 4.48 3.65 10.82 5.31 15.68h.13c1.6-4.42 3.14-8.51 4.42-12.29.77-2.43.96-3.9.96-4.61 0-1.54-.7-2.11-3.33-2.62-.26-.06-.26-1.22.06-1.22 4.1.06 7.49.13 10.05.13.26 0 .32 1.22.06 1.28-1.66.26-2.3.58-3.01 1.28-1.02 1.02-1.92 2.56-2.94 5.31-1.79 4.74-4.93 13.31-7.29 19.52-.19.38-.38.64-3.52.64-2.94 0-3.07-.13-3.26-.51-2.5-7.36-6.08-16.9-8.06-21.82-1.15-2.75-1.6-3.58-1.92-3.9-.32-.32-.77-.45-3.2-.51-.21-.01-.21-1.35.05-1.35ZM257.95 87.56c-2.3 5.95-7.3 8.64-12.67 8.64-5.38 0-10.17-2.05-13.05-4.93-2.37-2.37-3.78-5.12-3.78-9.41 0-3.52 1.54-7.04 4.1-9.6 3.07-3.07 6.91-5.12 11.84-5.12 4.48 0 7.81 1.66 10.24 4.03 2.18 2.18 3.71 5.5 3.78 10.18 0 .38-.13.51-.38.51-11.58 0-16.32.06-18.88.19.06 4.42.51 6.91 1.41 8.64 1.09 2.24 3.2 3.46 6.53 3.46 3.97 0 7.36-2.24 9.6-7.23.3-.25 1.32.32 1.26.64Zm-17.28-17.08c-.96 1.86-1.28 4.74-1.47 10.05l9.34-.13c-.19-8.83-1.34-11.9-4.61-11.9-1.66-.01-2.75.95-3.26 1.98Z" fill="#203864"/></svg>