<svg width="359" height="64" fill="none" xmlns="http://www.w3.org/2000/svg"><path d="M16.42 29.128a6.862 6.862 0 0 1-1.204 2.808c-.623.873-1.488 1.577-2.593 2.112-1.087.535-2.397.802-3.93.802H5.564l-1.256 7.166H.538l3.315-18.663h6.872c1.907 0 3.35.428 4.331 1.283.98.838 1.47 1.961 1.47 3.37 0 .41-.035.784-.106 1.122Zm-7.353 2.78c1.016 0 1.818-.249 2.406-.748.589-.499.963-1.176 1.123-2.032a3.42 3.42 0 0 0 .054-.695c0-1.408-.874-2.112-2.62-2.112H7.088L6.1 31.909h2.968ZM25.548 42.203c-1.569 0-2.96-.33-4.171-.99a7.188 7.188 0 0 1-2.78-2.78c-.66-1.194-.99-2.558-.99-4.091 0-2.139.472-4.064 1.417-5.775.962-1.711 2.281-3.048 3.957-4.01 1.693-.981 3.592-1.471 5.695-1.471 1.586 0 2.977.33 4.171.989a6.914 6.914 0 0 1 2.807 2.78c.66 1.177.99 2.523.99 4.038 0 2.175-.473 4.117-1.417 5.829a10.379 10.379 0 0 1-3.957 4.037c-1.694.962-3.601 1.444-5.722 1.444Zm.535-3.45c1.336 0 2.513-.338 3.529-1.015a6.67 6.67 0 0 0 2.38-2.728c.57-1.158.855-2.415.855-3.77 0-1.461-.41-2.61-1.23-3.449-.82-.837-1.97-1.256-3.449-1.256-1.32 0-2.495.338-3.53 1.016-1.015.677-1.809 1.586-2.379 2.727-.553 1.14-.829 2.388-.829 3.743 0 1.462.401 2.62 1.203 3.476.82.838 1.97 1.257 3.45 1.257ZM66.059 23.353l-8.53 18.663h-4.411l-1.15-13.289-5.989 13.289-4.385.026-1.738-18.689h4.01l.75 14.491 6.336-14.491h4.171l1.016 14.411 5.882-14.411h4.038ZM71.738 26.267l-.856 4.84h6.284l-.508 2.887h-6.284l-.882 5.054h7.085l-.534 2.968H65.187l3.316-18.69H79.33l-.508 2.941h-7.085ZM89.738 23.353c1.907 0 3.351.437 4.332 1.31.98.856 1.47 1.979 1.47 3.369 0 .339-.027.686-.08 1.043-.214 1.212-.766 2.317-1.658 3.315-.873.98-2.05 1.667-3.529 2.059l3.128 7.567h-4.358l-2.78-7.273H84.47l-1.283 7.273h-3.77l3.315-18.663h7.005Zm1.872 5.802c.035-.32.053-.535.053-.642 0-.677-.214-1.203-.641-1.577-.428-.375-1.079-.562-1.952-.562h-3.128l-.99 5.588h3.129c.998 0 1.79-.25 2.38-.748.605-.5.988-1.186 1.149-2.059ZM103.097 26.267l-.856 4.84h6.283l-.508 2.887h-6.283l-.882 5.054h7.085l-.535 2.968H96.546l3.316-18.69h10.828l-.508 2.941h-7.085ZM120.616 23.353c1.729 0 3.217.303 4.465.91 1.265.587 2.228 1.434 2.887 2.54.678 1.104 1.016 2.414 1.016 3.93 0 .677-.062 1.336-.187 1.978-.321 1.872-1.016 3.511-2.085 4.92-1.052 1.39-2.389 2.468-4.011 3.235-1.622.766-3.422 1.15-5.401 1.15h-6.524l3.316-18.663h6.524Zm-2.888 15.614c1.961 0 3.565-.552 4.813-1.657 1.265-1.105 2.076-2.638 2.433-4.599a10.4 10.4 0 0 0 .134-1.524c0-1.497-.446-2.656-1.337-3.476-.874-.82-2.157-1.23-3.85-1.23H117.3l-2.192 12.486h2.62ZM153.325 28.166c-.178 1.087-.624 1.996-1.337 2.727-.695.713-1.55 1.23-2.566 1.55.855.179 1.541.607 2.058 1.284.535.677.802 1.48.802 2.406 0 .25-.026.526-.08.83-.249 1.514-1.016 2.735-2.299 3.662-1.266.927-2.852 1.39-4.759 1.39h-8.048l3.315-18.662h7.7c1.694 0 2.995.356 3.904 1.07.927.713 1.39 1.666 1.39 2.86 0 .286-.026.58-.08.883Zm-3.903.561c.017-.107.026-.267.026-.481 0-.624-.205-1.105-.615-1.444-.41-.339-1.007-.508-1.791-.508h-3.396l-.855 4.813h3.422c.874 0 1.595-.205 2.166-.615.57-.428.918-1.016 1.043-1.765Zm-.936 7.78a4.45 4.45 0 0 0 .053-.534c0-.642-.231-1.14-.695-1.497-.446-.375-1.069-.562-1.871-.562h-3.69l-.883 5.134h3.77c.909 0 1.658-.223 2.246-.669.589-.445.945-1.07 1.07-1.871ZM172.431 23.353l-8.449 12.165-1.15 6.498h-3.77l1.177-6.498-4.198-12.165h4.225l2.486 8.476 5.455-8.476h4.224Z" fill="#4F4F4F"/><path d="M194.069 2.302c1.576 0 6.346-.04 8.043-.04 4.77 0 8.303.891 10.258 2.854.852.852 1.318 2.042 1.318 3.493 0 4.131-4.132 6.426-9.321 6.985v.127c5.07.765 7.365 2.089 8.263 6.346.765 3.62.978 4.212 1.876 4.212.725 0 1.49-1.065 2.042-3.706.087-.126.892.126.852.3-.765 3.871-2.468 5.747-6.047 5.747-2.003 0-3.58-.512-4.558-1.53-1.277-1.277-1.956-3.02-2.641-6.899-.725-3.492-1.403-4.085-3.492-4.085h-2.216c-.173 0-.213.04-.213.173-.04 3.407-.04 8.476-.04 9.407 0 .978 0 1.278.127 1.404.126.127.512.173 3.28.253.173 0 .173.938 0 .938-2.728-.086-10.006-.173-14.816-.04-.127 0-.173-.938 0-.938 2.554-.04 3.02-.086 3.153-.213.127-.173.213-.725.213-1.916 0-6.174.087-9.453.087-10.944 0-3.659-.04-8.05-.04-8.815 0-1.616-.127-1.916-.213-2.042-.127-.126-.386-.126-3.194-.173-.126 0-.173-.891.04-.891h7.239v-.007ZM198.2 4.73c0 1.065.04 5.575.04 8.729 0 1.317 0 1.53.04 1.663.086.086.512.086 1.956.086 2.515 0 3.832-.465 4.47-1.743.426-.851.599-2.042.599-4.683 0-1.79-.173-3.02-.599-3.872-.598-1.151-1.743-1.663-4.257-1.663-1.83 0-2.089 0-2.169.04-.08.08-.08.332-.08 1.443Z" fill="#203864"/><path d="M221.997 11.243c0 .426 2.169.599 2.169 2.98 0 1.83-1.45 2.941-3.28 2.941-1.916 0-3.28-1.15-3.28-2.98 0-1.025.339-1.79 1.105-2.555 1.237-1.19 3.279-2.089 6.726-2.089 3.792 0 5.834.892 7.151 2.216 1.404 1.403 1.83 3.366 1.83 5.747 0 1.877-.127 4.937-.127 8.13 0 .892.3 1.191.852 1.191.725 0 1.45-.978 1.79-3.446.04-.173.811-.04.811.173-.339 3.153-1.49 5.023-4.896 5.023-2.981 0-4.557-1.364-5.196-3.154-1.277 1.83-3.107 3.194-5.708 3.194-2.981 0-5.622-1.956-5.622-4.724 0-1.277.426-2.302 1.317-3.193 1.404-1.404 3.746-2.342 10.173-2.98.04-.6.04-2.13.04-3.407 0-1.364-.253-2.342-.852-2.894-.512-.552-1.364-.938-2.808-.938-1.423 0-2.195.512-2.195.765Zm.938 11.962c0 2.468.552 3.28 1.703 3.28s2.342-1.105 2.768-1.956c.213-.466.339-.938.386-2.129.04-1.104.04-2.169.04-3.832-4.085.466-4.897 1.277-4.897 4.637Z" fill="#203864"/><path d="M239.288 25.593c-1.577-1.576-2.641-3.579-2.641-6.346 0-2.382.851-4.558 2.807-6.553 1.916-1.917 4.73-3.327 8.303-3.327 4.85 0 7.79 2.515 7.79 5.449 0 2.215-1.53 3.579-3.28 3.579-1.749 0-3.067-1.277-3.067-2.807 0-.812.213-1.45.726-1.956 1.024-1.025 2.594-.726 2.854-.978.425-.426-1.364-2.17-4.172-2.17-1.876 0-2.94.813-3.532 2.003-.679 1.404-.978 3.32-.978 6.427 0 3.446.173 5.023.765 6.26.638 1.238 1.743 2.043 3.745 2.043 2.256 0 4.637-1.404 6.048-4.983.126-.253.978.173.891.425-1.45 3.793-4.298 6.048-8.342 6.048-3.107-.007-5.961-1.158-7.917-3.114Z" fill="#203864"/><path d="M255.215 28.188c-.127 0-.127-.852 0-.852 1.789-.04 2.554-.04 2.681-.212.126-.127.173-.553.213-1.743.039-1.318.039-2.469.039-3.959 0-1.663-.086-7.278-.173-9.068 0-.678-.086-1.104-.212-1.237-.127-.127-.466-.173-2.682-.213-.086 0-.126-.852 0-.852 2.642-.04 7.066-.04 9.108-.04.386 0 .466.127.466.426V22.36c0 3.792.173 4.644.339 4.77.127.173.466.213 2.382.253.173 0 .213.852.04.852a8729.31 8729.31 0 0 0-12.201-.047Zm5.874-21.329c-2.302 0-3.659-1.703-3.659-3.406 0-.938.339-1.703.978-2.302C259.047.472 260.071 0 261.601 0c2.043 0 3.619 1.364 3.619 3.153-.006 2.13-1.962 3.706-4.131 3.706Z" fill="#203864"/><path d="M266.325 27.376c1.743-.04 2.215-.04 2.341-.173.127-.173.213-.678.213-3.619v-9.66c0-1.703-.126-2.554-.299-2.727-.126-.173-.466-.213-2.302-.253-.126 0-.126-.852.04-.852 1.83 0 7.238-.04 9.028-.086.253 0 .299.126.299.426-.04 1.064-.086 3.233-.126 4.297l.126.04c1.451-3.02 3.28-5.409 6.64-5.409 3.579 0 5.408 2.13 5.408 6.214 0 1.79-.039 4.431-.039 6.986 0 3.579.086 4.43.252 4.597.127.173.513.173 2.089.253.173 0 .173.851 0 .811-3.958-.086-8.043-.04-10.598 0-.212-.04-.173-.851-.086-.851 1.024-.087 1.404-.087 1.53-.213.127-.127.126-.466.126-1.79V14.95c0-1.45-.385-2.468-1.703-2.468-1.363 0-2.514 1.45-3.153 2.727-.426.852-.599 1.703-.599 3.194 0 1.104.04 5.621.04 7.111 0 1.151.04 1.53.173 1.664.127.126.466.126 1.79.213.173 0 .126.851-.04.851-3.493-.04-8.642-.04-11.157.04-.12-.053-.12-.905.007-.905Z" fill="#203864"/><path d="M298.045 37.555c-5.748 0-9.32-1.876-9.32-4.47 0-1.49 1.277-2.768 4.085-3.92-1.79-.638-2.728-1.789-2.728-3.192 0-.978.426-1.79 1.104-2.515.725-.725 1.876-1.49 3.154-2.169-2.595-.892-4.557-2.681-4.511-5.449 0-1.277.466-2.514 1.49-3.532 1.53-1.49 4.218-2.595 7.751-2.641h.386c.552-1.191 1.191-2.894 2.428-4.132.852-.851 1.83-1.404 3.406-1.404 2.169 0 3.194 1.278 3.194 2.595 0 1.277-.978 2.089-2.169 2.089-.599 0-1.065-.173-1.451-.512-.851-.852-.299-2.13-.678-2.515-.339-.34-1.065-.3-1.956.599-.725.725-1.317 1.916-1.79 3.32 2.768.252 5.283 1.363 6.473 2.554.939.938 1.364 1.916 1.364 3.406 0 1.53-.678 2.728-1.703 3.746-1.53 1.53-4.637 2.641-7.79 2.595-1.105 0-2.256-.127-3.32-.386-1.577.851-2.089 1.403-2.089 1.743 0 .386.426.638 1.663.851 1.743.253 3.919.426 7.152.765 3.619.3 5.489.938 6.56 2.003.765.765 1.237 1.876 1.237 3.153 0 1.703-.599 2.94-1.703 4.005-2.109 2.136-5.941 3.413-10.239 3.413Zm6.467-2.681c.599-.552.851-1.237.851-2.042 0-1.278-.891-1.956-2.894-2.256-2.468-.3-4.297-.512-7.624-.938a6.248 6.248 0 0 1-.978-.173c-2.042 1.025-2.854 2.003-2.854 3.32 0 2.255 2.641 3.792 7.239 3.792 3.326 0 5.282-.725 6.26-1.703Zm-3.06-23.079c-.386-.725-1.065-1.19-2.382-1.19-1.956 0-2.894 1.79-2.894 5.408 0 2.13.213 3.234.552 3.959.386.765.978 1.237 2.255 1.237 2.089 0 2.894-1.956 2.894-5.322 0-2.342-.133-3.453-.425-4.092ZM208.246 39.564c.253 0 .512-.213 2.641-2.468.126-.126.725-.086.725.126-.173 2.894-.213 8.263-.173 10.472 0 .173-.725.173-.765 0-1.404-3.233-2.854-6.047-4.258-7.451-1.151-1.105-2.342-1.83-4.297-1.83-2.382 0-3.706 1.238-4.431 2.681-.938 1.877-1.451 4.644-1.451 9.793 0 4.005.426 6.474 1.318 8.216.938 1.956 2.727 3.107 5.495 3.107 2.169 0 4.085-.851 5.362-2.168 1.49-1.45 2.468-3.533 2.894-5.748.087-.173 1.025.086.938.252-.466 2.515-1.45 4.684-3.233 6.427-1.743 1.79-4.298 2.894-7.964 2.894-4.257 0-7.664-1.404-10.092-3.872-2.129-2.129-3.533-5.07-3.533-8.815 0-3.62 1.191-6.852 3.706-9.367 2.555-2.595 5.961-4.597 10.345-4.597 4.178.006 6.394 2.348 6.773 2.348ZM231.151 60.807c-1.956 1.956-4.81 3.193-7.916 3.193-3.32 0-6.427-1.53-8.303-3.406-1.53-1.53-2.468-3.493-2.468-6.127 0-2.515.978-4.644 2.767-6.427 2.043-2.042 5.07-3.366 8.343-3.366 3.193 0 5.874 1.317 7.79 3.233 1.79 1.79 2.641 4.085 2.641 6.56 0 2.594-1.19 4.683-2.854 6.34Zm-5.189-13.838c-.466-.938-1.151-1.404-2.428-1.404-1.404 0-2.255.765-2.681 1.703-.599 1.151-.892 3.194-.892 7.238 0 6.813 1.191 8.602 3.32 8.602 1.277 0 1.956-.512 2.468-1.49.552-1.104.892-2.894.892-8.768 0-3.366-.213-4.983-.679-5.881Z" fill="#203864"/><path d="M242.568 35.819c.299 0 .385.173.385.465-.039 4.471-.039 8.602-.039 13.24 0 4.43-.04 8.05-.087 11.11 0 1.15.126 1.53.299 1.743.127.126.386.173 2.515.252.087 0 .127.892-.04.892-3.792-.126-8.129-.126-12.088-.126-.126 0-.126-.852 0-.852 1.916 0 2.302-.04 2.428-.173.127-.126.173-.386.173-1.15.04-2.003.127-5.875.127-8.556 0-5.921 0-9.966-.04-14.39-.04-.978-.04-1.278-.173-1.404-.127-.127-.386-.173-2.515-.213-.173-.04-.126-.852.04-.852 2.455.014 6.413.054 9.015.014Z" fill="#203864"/><path d="M253.851 35.819c.299 0 .386.173.386.465-.04 4.471-.04 8.602-.04 13.24 0 4.43-.04 8.05-.087 11.11 0 1.15.127 1.53.3 1.743.126.126.385.173 2.514.252.087 0 .127.892-.04.892-3.792-.126-8.129-.126-12.088-.126-.126 0-.126-.852 0-.852 1.916 0 2.302-.04 2.429-.173.126-.126.172-.386.172-1.15.04-2.003.127-5.875.127-8.556 0-5.921 0-9.966-.04-14.39-.04-.978-.04-1.278-.173-1.404-.126-.127-.386-.173-2.515-.213-.173-.04-.126-.852.04-.852 2.455.014 6.413.054 9.015.014ZM276.118 58.252C274.587 62.21 271.261 64 267.689 64c-3.58 0-6.766-1.364-8.682-3.28-1.577-1.577-2.515-3.406-2.515-6.26 0-2.342 1.024-4.684 2.727-6.387 2.043-2.042 4.598-3.406 7.877-3.406 2.981 0 5.196 1.104 6.813 2.681 1.45 1.45 2.468 3.66 2.515 6.773 0 .252-.087.339-.253.339-7.704 0-10.858.04-12.561.126.04 2.94.34 4.597.938 5.748.726 1.49 2.129 2.302 4.345 2.302 2.641 0 4.896-1.49 6.386-4.81.2-.166.879.213.839.426Zm-11.496-11.363c-.639 1.237-.852 3.153-.978 6.686l6.213-.086c-.126-5.875-.891-7.917-3.067-7.917a2.342 2.342 0 0 0-2.168 1.317ZM279.098 60.853c-1.577-1.577-2.641-3.579-2.641-6.347 0-2.381.851-4.557 2.807-6.553 1.916-1.916 4.724-3.32 8.303-3.32 4.857 0 7.791 2.515 7.791 5.45 0 2.215-1.531 3.578-3.28 3.578-1.743 0-3.067-1.277-3.067-2.807 0-.812.213-1.45.725-1.956 1.024-1.024 2.595-.725 2.854-.978.426-.426-1.364-2.169-4.171-2.169-1.876 0-2.941.812-3.533 2.003-.679 1.404-.978 3.32-.978 6.426 0 3.447.173 5.023.765 6.26.639 1.238 1.743 2.043 3.746 2.043 2.255 0 4.643-1.404 6.047-4.983.126-.253.978.173.892.426-1.451 3.792-4.298 6.047-8.343 6.047-3.107-.013-5.961-1.164-7.917-3.12Z" fill="#203864"/><path d="M303.66 63.834c-2.255 0-3.872-.6-4.983-1.743-.978-.938-1.49-2.09-1.49-4.598 0-2.428.087-7.537.213-11.07-.253-.04-2.169-.04-2.595-.04-.213 0-.173-.978 0-.978 2.894-.126 4.258-.725 5.835-2.341.978-.938 2.042-2.681 2.641-4.258.087-.213.852-.127.892.086-.04 1.364-.173 5.023-.213 6.473h4.983c.212-.04.173 1.065-.04 1.065-2.382-.04-4.345 0-4.937.04-.086 1.577-.173 7.404-.173 11.669 0 2.042.087 2.594.3 3.067.252.512.765.851 1.49.851 1.237 0 2.342-1.403 3.02-4.683.04-.173.938.04.892.253-.725 4.078-2.342 6.207-5.835 6.207Z" fill="#203864"/><path d="M308.477 63.448c-.127 0-.127-.852 0-.852 1.789-.04 2.555-.04 2.681-.213.126-.126.173-.552.213-1.743.04-1.317.04-2.468.04-3.958 0-1.663-.087-7.278-.173-9.068 0-.678-.087-1.104-.213-1.237-.127-.127-.466-.173-2.681-.213-.087 0-.127-.852 0-.852 2.641-.04 7.065-.04 9.114-.04.386 0 .466.127.466.426V57.62c0 3.792.173 4.644.339 4.77.127.173.466.213 2.382.253.173 0 .213.851.04.851-.885-.006-11.569-.046-12.208-.046Zm5.874-21.33c-2.302 0-3.659-1.702-3.659-3.405 0-.938.34-1.703.978-2.302.639-.679 1.663-1.151 3.194-1.151 2.042 0 3.619 1.364 3.619 3.153-.007 2.13-1.963 3.706-4.132 3.706ZM318.609 45.312c3.493-.086 8.09.04 11.922 0 .253 0 .253.852.086.852-1.876.086-2.089.086-2.255.213-.126.173-.04.638.552 2.255.978 2.98 2.429 7.198 3.533 10.432h.086c1.065-2.94 2.089-5.662 2.941-8.177.512-1.616.639-2.594.639-3.067 0-1.024-.466-1.403-2.216-1.743-.173-.04-.173-.811.04-.811 2.728.04 4.983.086 6.686.086.173 0 .213.812.04.852-1.104.173-1.53.386-2.002.851-.679.679-1.278 1.703-1.956 3.533-1.191 3.153-3.28 8.855-4.85 12.986-.127.253-.253.426-2.342.426-1.956 0-2.042-.087-2.169-.34-1.663-4.896-4.045-11.242-5.362-14.516-.765-1.83-1.064-2.381-1.277-2.594-.213-.213-.512-.3-2.129-.34-.14-.006-.14-.898.033-.898ZM358.247 58.252C356.716 62.21 353.39 64 349.817 64c-3.579 0-6.765-1.364-8.681-3.28-1.577-1.577-2.515-3.406-2.515-6.26 0-2.342 1.024-4.684 2.727-6.387 2.043-2.042 4.598-3.406 7.877-3.406 2.981 0 5.196 1.104 6.813 2.681 1.45 1.45 2.468 3.66 2.515 6.773 0 .252-.087.339-.253.339-7.704 0-10.858.04-12.561.126.04 2.94.34 4.597.938 5.748.725 1.49 2.129 2.302 4.345 2.302 2.641 0 4.896-1.49 6.386-4.81.2-.166.878.213.839.426ZM346.75 46.889c-.638 1.237-.851 3.153-.977 6.686l6.213-.086c-.126-5.875-.891-7.917-3.067-7.917a2.344 2.344 0 0 0-2.169 1.317Z" fill="#203864"/></svg>