<svg width="800" height="420" fill="none" xmlns="http://www.w3.org/2000/svg"><path d="m163.058 398.734-5.553-10.087h-1.56v10.087h-6.504v-26.72h10.917c2.104 0 3.892.368 5.363 1.104 1.496.736 2.611 1.751 3.347 3.045.735 1.268 1.103 2.689 1.103 4.263 0 1.776-.507 3.362-1.522 4.757-.989 1.396-2.459 2.386-4.412 2.969l6.162 10.582h-7.341Zm-7.113-14.692h4.032c1.192 0 2.079-.292 2.663-.876.608-.583.913-1.408.913-2.474 0-1.015-.305-1.814-.913-2.398-.584-.583-1.471-.875-2.663-.875h-4.032v6.623ZM198.482 394.014h-9.965l-1.598 4.72h-6.808l9.661-26.72h7.531l9.661 26.72h-6.885l-1.597-4.72Zm-1.674-5.024-3.309-9.782-3.271 9.782h6.58ZM216.408 385.336c0-2.639.571-4.986 1.712-7.042 1.141-2.081 2.726-3.692 4.754-4.834 2.054-1.167 4.374-1.751 6.961-1.751 3.169 0 5.882.838 8.139 2.513 2.257 1.674 3.766 3.958 4.526 6.851h-7.15c-.533-1.117-1.293-1.967-2.282-2.55-.964-.584-2.067-.876-3.309-.876-2.004 0-3.626.698-4.869 2.094-1.242 1.395-1.864 3.26-1.864 5.595 0 2.334.622 4.199 1.864 5.595 1.243 1.395 2.865 2.093 4.869 2.093 1.242 0 2.345-.292 3.309-.875.989-.584 1.749-1.434 2.282-2.55h7.15c-.76 2.892-2.269 5.176-4.526 6.851-2.257 1.649-4.97 2.474-8.139 2.474-2.587 0-4.907-.571-6.961-1.713a12.437 12.437 0 0 1-4.754-4.834c-1.141-2.055-1.712-4.402-1.712-7.041ZM260.595 372.014v26.72h-6.505v-26.72h6.505ZM296.801 398.734h-6.504l-10.878-16.481v16.481h-6.504v-26.72h6.504l10.878 16.557v-16.557h6.504v26.72ZM326.847 380.464a4.735 4.735 0 0 0-2.092-2.018c-.887-.482-1.94-.723-3.157-.723-2.104 0-3.79.698-5.058 2.094-1.268 1.37-1.902 3.21-1.902 5.519 0 2.461.659 4.39 1.978 5.785 1.344 1.37 3.182 2.056 5.515 2.056 1.597 0 2.941-.406 4.032-1.218 1.115-.812 1.927-1.98 2.434-3.502h-8.254v-4.796h14.149v6.052c-.481 1.624-1.306 3.134-2.472 4.529-1.141 1.396-2.599 2.525-4.374 3.388-1.775.863-3.778 1.294-6.01 1.294-2.637 0-4.995-.571-7.074-1.713a12.633 12.633 0 0 1-4.831-4.834c-1.141-2.055-1.711-4.402-1.711-7.041 0-2.639.57-4.986 1.711-7.042 1.167-2.081 2.777-3.692 4.831-4.834 2.054-1.167 4.399-1.751 7.036-1.751 3.195 0 5.883.774 8.064 2.322 2.206 1.548 3.664 3.692 4.374 6.433h-7.189ZM360.266 385.336c0-2.639.571-4.986 1.712-7.042 1.141-2.081 2.726-3.692 4.754-4.834 2.054-1.167 4.374-1.751 6.961-1.751 3.169 0 5.883.838 8.139 2.513 2.257 1.674 3.766 3.958 4.526 6.851h-7.15c-.533-1.117-1.293-1.967-2.282-2.55-.964-.584-2.067-.876-3.309-.876-2.004 0-3.626.698-4.869 2.094-1.242 1.395-1.864 3.26-1.864 5.595 0 2.334.622 4.199 1.864 5.595 1.243 1.395 2.865 2.093 4.869 2.093 1.242 0 2.345-.292 3.309-.875.989-.584 1.749-1.434 2.282-2.55h7.15c-.76 2.892-2.269 5.176-4.526 6.851-2.256 1.649-4.97 2.474-8.139 2.474-2.587 0-4.907-.571-6.961-1.713a12.437 12.437 0 0 1-4.754-4.834c-1.141-2.055-1.712-4.402-1.712-7.041ZM410.576 399c-2.51 0-4.818-.584-6.922-1.751-2.079-1.167-3.74-2.791-4.983-4.872-1.217-2.106-1.825-4.466-1.825-7.079 0-2.614.608-4.961 1.825-7.042 1.243-2.081 2.904-3.705 4.983-4.872 2.104-1.167 4.412-1.751 6.922-1.751 2.511 0 4.805.584 6.885 1.751a12.68 12.68 0 0 1 4.944 4.872c1.217 2.081 1.826 4.428 1.826 7.042 0 2.613-.609 4.973-1.826 7.079-1.217 2.081-2.865 3.705-4.944 4.872-2.08 1.167-4.374 1.751-6.885 1.751Zm0-5.938c2.13 0 3.829-.71 5.097-2.131 1.293-1.421 1.94-3.299 1.94-5.633 0-2.36-.647-4.238-1.94-5.634-1.268-1.421-2.967-2.131-5.097-2.131-2.155 0-3.879.698-5.173 2.093-1.267 1.396-1.901 3.286-1.901 5.672 0 2.359.634 4.25 1.901 5.671 1.294 1.396 3.018 2.093 5.173 2.093ZM441.96 393.709h8.52v5.025h-15.024v-26.72h6.504v21.695ZM467.694 393.709h8.52v5.025H461.19v-26.72h6.504v21.695ZM493.427 377.228v5.405h8.71v5.024h-8.71v5.862h9.851v5.215h-16.355v-26.72h16.355v5.214h-9.851ZM514.005 385.336c0-2.639.57-4.986 1.711-7.042 1.141-2.081 2.726-3.692 4.755-4.834 2.054-1.167 4.374-1.751 6.96-1.751 3.17 0 5.883.838 8.14 2.513 2.256 1.674 3.765 3.958 4.526 6.851h-7.151c-.532-1.117-1.293-1.967-2.282-2.55-.963-.584-2.066-.876-3.309-.876-2.003 0-3.626.698-4.868 2.094-1.243 1.395-1.864 3.26-1.864 5.595 0 2.334.621 4.199 1.864 5.595 1.242 1.395 2.865 2.093 4.868 2.093 1.243 0 2.346-.292 3.309-.875.989-.584 1.75-1.434 2.282-2.55h7.151c-.761 2.892-2.27 5.176-4.526 6.851-2.257 1.649-4.97 2.474-8.14 2.474-2.586 0-4.906-.571-6.96-1.713a12.433 12.433 0 0 1-4.755-4.834c-1.141-2.055-1.711-4.402-1.711-7.041ZM570.895 372.014v5.214h-7.075v21.506h-6.504v-21.506h-7.074v-5.214h20.653ZM588.27 372.014v26.72h-6.504v-26.72h6.504ZM625.656 372.014l-9.471 26.72h-8.14l-9.47-26.72h6.922l6.618 20.173 6.656-20.173h6.885ZM642.485 377.228v5.405h8.71v5.024h-8.71v5.862h9.851v5.215h-16.355v-26.72h16.355v5.214h-9.851Z" fill="#203864"/><path fill-rule="evenodd" clip-rule="evenodd" d="M647.336 34.3c-23.403 24.905-26.255 27.256-29.034 27.256-.966 0-3.016-1.389-6.167-3.524h-.001l-.002-.002c-2.612-1.769-5.979-4.05-10.112-6.477-12.403-7.285-31.704-15.889-58.168-15.931-40.39 0-73.229 15.53-99.336 37.425 4.311 9.048 6.483 19.379 6.483 30.548 0 27.298-13.839 48.304-34.791 62.825-7.906 5.479-16.856 10.074-26.56 13.838a180.33 180.33 0 0 0-.155 3.549c6.169 2.711 11.815 5.872 16.933 9.608 17.49 12.765 27.379 31.103 32.699 56.439 4.309 20.478 6.764 30.725 9.061 36.031.082.189.16.363.234.523.529-.613 1.234-1.566 2.089-3.026 2.949-5.033 6.252-13.876 9.175-27.925l.467-2.242 1.289-1.892c2.876-4.223 7.194-5.029 8.369-5.218 1.708-.276 3.231-.191 4.201-.094 2.042.204 4.09.724 5.787 1.293 1.656.554 3.739 1.407 5.629 2.635.89.579 2.372 1.642 3.678 3.302 1.225 1.556 3.493 5.249 2.469 10.18-4.218 21.395-11.206 39.253-23.23 52.015 20.378 9.43 44.074 14.495 70.828 14.495 40.297 0 68.38-12.195 87.542-31.958 19.599-19.248 30.423-43.198 35.543-70.969.58-1.122-3.041-2.628-6.165-3.194l-.079-.015-.061-.01-.008-.002a16.366 16.366 0 0 0-.603-.092l-.004-.001c-.131-.018-.26-.033-.388-.047-1.496-.158-2.707-.028-3.004.569-4.681 24.465-15.432 47.46-31.814 63.476-14.041 14.546-35.104 23.95-58.945 23.95-30.424 0-50.097-12.71-60.409-34.309-9.8-19.249-14.481-46.505-14.481-90.732 0-56.864 5.632-87.426 15.944-108.144 7.971-15.942 22.525-29.607 48.707-29.607 21.501 0 34.592 8.008 47.244 20.203 15.432 15.502 31.375 46.579 46.806 82.284.439 1.91 8.41 1.91 8.41 0-.438-24.391 0-83.68 1.902-115.638 0-2.35-6.582-2.791-7.972-1.396Z" fill="#203864"/><path fill-rule="evenodd" clip-rule="evenodd" d="m655.951 223.785-.008-.002.069.012-.061-.01ZM272.569 320.107l-.042-.001-.711-.01.753.011Zm-123.666.156h.027-.027Zm179.27-150.048.002-.001.078-.041-.08.042Zm-20.165 5.473h.006-.006ZM457.612 309.895a134.857 134.857 0 0 1-29.385-22.722c-22.121-22.221-37.12-52.451-38.697-90.627a93.029 93.029 0 0 0-7.775-3.511c.779 41.917 16.843 75.235 41.017 99.53a142.483 142.483 0 0 0 28.377 22.431 49.477 49.477 0 0 0 6.463-5.101Zm11.801-45.297.015-.058.052-.217-.067.275Zm9.953 1.003-.01.042a22.755 22.755 0 0 1 .01-.042Zm-88.517-98.28a140.376 140.376 0 0 1-8.111 3.243c3.656-34.059 17.276-64.786 41.936-89.569a215.324 215.324 0 0 1 7.269-7.076 49.026 49.026 0 0 1 3.545 7.192 210.904 210.904 0 0 0-5.36 5.277c-22.34 22.442-35.176 50.066-39.279 80.933Z" fill="#fff"/><path fill-rule="evenodd" clip-rule="evenodd" d="M422.772 292.565a142.483 142.483 0 0 0 28.377 22.431 49.477 49.477 0 0 0 6.463-5.101 134.857 134.857 0 0 1-29.385-22.722c-22.121-22.221-37.12-52.451-38.697-90.627a95.138 95.138 0 0 0-7.775-3.511c.779 41.917 16.843 75.235 41.017 99.53Zm-40.034-122.001a140.376 140.376 0 0 0 8.111-3.243c4.103-30.867 16.939-58.491 39.279-80.933a210.904 210.904 0 0 1 5.36-5.277 49.026 49.026 0 0 0-3.545-7.192 215.324 215.324 0 0 0-7.269 7.076c-24.66 24.783-38.28 55.51-41.936 89.569Z" fill="#fff"/><path d="M223.849 33.975c17.333 0 69.77-.441 88.419-.441 52.437 0 91.271 9.845 112.773 31.517 9.361 9.404 14.48 22.555 14.48 38.571 0 45.623-45.416 70.969-102.461 77.14v1.396c55.728 8.449 80.96 23.069 90.833 70.088 8.41 39.966 10.75 46.505 20.624 46.505 7.971 0 16.382-11.755 22.452-40.922.95-1.396 9.8 1.396 9.361 3.306-8.411 42.758-27.133 63.476-66.479 63.476-22.013 0-39.346-5.657-50.097-16.897-14.041-14.106-21.501-33.355-29.034-76.186-7.971-38.57-15.431-45.109-38.395-45.109h-24.354c-1.901 0-2.34.441-2.34 1.91-.439 37.616-.439 93.598-.439 103.883 0 10.8 0 14.106 1.39 15.502 1.389 1.395 5.631 1.91 36.055 2.791 1.901 0 1.901 10.359 0 10.359-29.985-.955-109.994-1.91-162.87-.441-1.389 0-1.901-10.358 0-10.358 28.084-.441 33.203-.956 34.666-2.351 1.389-1.911 2.34-8.008 2.34-21.159 0-68.178.951-104.397.951-120.854 0-40.407-.439-88.895-.439-97.344 0-17.852-1.389-21.158-2.34-22.554-1.39-1.396-4.242-1.396-35.104-1.91-1.39 0-1.902-9.845.438-9.845h79.57v-.073Zm45.416 26.815c0 11.755.439 61.566.439 96.389 0 14.547 0 16.898.439 18.367.951.955 5.631.955 21.501.955 27.645 0 42.125-5.143 49.146-19.248 4.681-9.404 6.582-22.555 6.582-51.721 0-19.763-1.901-33.354-6.582-42.758-6.582-12.71-19.161-18.367-46.805-18.367-20.112 0-22.965 0-23.842.44-.878.883-.878 3.674-.878 15.943Z" fill="#203864"/></svg>