<svg width="1920" height="1200" fill="none" xmlns="http://www.w3.org/2000/svg"><path fill="#fff" d="M0 0h1920v1200H0z"/><path d="M518.612 432.948c8.869 0 35.701-.225 45.244-.225 26.831 0 46.702 5.015 57.704 16.054 4.79 4.79 7.41 11.489 7.41 19.647 0 23.239-23.239 36.149-52.428 39.293v.711c28.515 4.303 41.426 11.75 46.478 35.7 4.303 20.358 5.501 23.689 10.553 23.689 4.079 0 8.382-5.988 11.488-20.844.487-.712 5.015.711 4.79 1.684-4.303 21.779-13.883 32.332-34.016 32.332-11.264 0-20.133-2.881-25.634-8.607-7.185-7.185-11.002-16.99-14.857-38.807-4.079-19.646-7.896-22.977-19.646-22.977h-12.462c-.973 0-1.197.225-1.197.973-.225 19.16-.225 47.676-.225 52.915 0 5.501 0 7.185.711 7.896.711.711 2.882.973 18.449 1.422.973 0 .973 5.277 0 5.277-15.343-.487-56.283-.973-83.339-.225-.711 0-.973-5.276 0-5.276 14.37-.225 16.99-.487 17.738-1.198.711-.973 1.198-4.079 1.198-10.777 0-34.728.486-53.177.486-61.56 0-20.582-.224-45.28-.224-49.584 0-9.093-.711-10.777-1.198-11.488-.711-.711-2.17-.711-17.962-.973-.711 0-.973-5.015.224-5.015h40.715v-.037Zm23.239 13.659c0 5.987.225 31.359.225 49.097 0 7.41 0 8.607.225 9.356.486.486 2.881.486 11.002.486 14.145 0 21.555-2.619 25.147-9.804 2.395-4.79 3.368-11.489 3.368-26.345 0-10.067-.973-16.99-3.368-21.78-3.368-6.474-9.804-9.355-23.95-9.355-10.291 0-11.75 0-12.199.224-.45.449-.45 1.871-.45 8.121Z" fill="#203864" fill-opacity=".7"/><path d="M675.71 483.244c0 2.395 12.2 3.368 12.2 16.765 0 10.291-8.158 16.54-18.449 16.54-10.778 0-18.449-6.474-18.449-16.765 0-5.763 1.908-10.066 6.212-14.37 6.96-6.699 18.449-11.75 37.833-11.75 21.331 0 32.82 5.014 40.229 12.461 7.896 7.896 10.291 18.936 10.291 32.333 0 10.553-.711 27.767-.711 45.729 0 5.015 1.684 6.699 4.79 6.699 4.079 0 8.158-5.501 10.067-19.385.224-.973 4.565-.224 4.565.973-1.908 17.738-8.382 28.254-27.542 28.254-16.765 0-25.634-7.672-29.227-17.738-7.185 10.291-17.476 17.962-32.108 17.962-16.765 0-31.622-11.002-31.622-26.569 0-7.185 2.395-12.948 7.41-17.963 7.896-7.896 21.068-13.172 57.218-16.765.225-3.368.225-11.975.225-19.16 0-7.671-1.422-13.172-4.79-16.278-2.882-3.107-7.672-5.277-15.792-5.277-8.009 0-12.35 2.882-12.35 4.304Zm5.277 67.284c0 13.884 3.106 18.449 9.58 18.449s13.172-6.212 15.567-11.002c1.198-2.619 1.909-5.276 2.171-11.975.224-6.212.224-12.199.224-21.555-22.977 2.62-27.542 7.185-27.542 26.083Z" fill="#203864" fill-opacity=".7"/><path d="M772.97 563.963c-8.869-8.869-14.856-20.133-14.856-35.701 0-13.397 4.79-25.634 15.792-36.86 10.777-10.778 26.607-18.711 46.703-18.711 27.28 0 43.821 14.145 43.821 30.648 0 12.462-8.607 20.133-18.449 20.133-9.842 0-17.252-7.185-17.252-15.792 0-4.565 1.198-8.158 4.079-11.002 5.763-5.763 14.595-4.079 16.054-5.501 2.395-2.395-7.671-12.2-23.463-12.2-10.553 0-16.541 4.566-19.872 11.264-3.817 7.896-5.501 18.674-5.501 36.15 0 19.385.973 28.254 4.304 35.214 3.592 6.961 9.805 11.489 21.069 11.489 12.686 0 26.083-7.896 34.016-28.029.711-1.422 5.501.973 5.015 2.395-8.158 21.33-24.175 34.016-46.927 34.016-17.477-.037-33.531-6.511-44.533-17.513Z" fill="#203864" fill-opacity=".7"/><path d="M862.558 578.557c-.711 0-.711-4.79 0-4.79 10.067-.224 14.37-.224 15.081-1.197.711-.711.973-3.106 1.198-9.805.224-7.41.224-13.884.224-22.266 0-9.356-.486-40.94-.973-51.006 0-3.817-.486-6.212-1.197-6.961-.711-.711-2.62-.973-15.081-1.197-.487 0-.711-4.79 0-4.79 14.856-.225 39.742-.225 51.231-.225 2.17 0 2.619.711 2.619 2.395v67.06c0 21.331.973 26.121 1.909 26.832.711.973 2.619 1.198 13.397 1.422.973 0 1.197 4.79.224 4.79-4.939-.037-65.039-.262-68.632-.262Zm33.044-119.975c-12.948 0-20.582-9.58-20.582-19.16 0-5.276 1.908-9.58 5.501-12.948 3.592-3.817 9.355-6.474 17.962-6.474 11.489 0 20.358 7.672 20.358 17.738-.037 11.975-11.039 20.844-23.239 20.844Z" fill="#203864" fill-opacity=".7"/><path d="M925.053 573.992c9.804-.225 12.461-.225 13.172-.973.711-.973 1.198-3.817 1.198-20.358v-54.336c0-9.58-.711-14.371-1.684-15.343-.711-.973-2.62-1.198-12.948-1.423-.711 0-.711-4.79.224-4.79 10.291 0 40.715-.224 50.782-.486 1.422 0 1.684.711 1.684 2.395-.225 5.988-.486 18.187-.711 24.175l.711.224c8.158-16.989 18.449-30.424 37.349-30.424 20.13 0 30.42 11.975 30.42 34.952 0 10.067-.22 24.923-.22 39.293 0 20.133.48 24.923 1.42 25.859.71.973 2.88.973 11.75 1.422.97 0 .97 4.79 0 4.565-22.27-.486-45.24-.224-59.613 0-1.198-.224-.973-4.79-.486-4.79 5.759-.486 7.899-.486 8.609-1.197.71-.711.71-2.62.71-10.067v-58.602c0-8.158-2.17-13.884-9.581-13.884-7.672 0-14.146 8.158-17.738 15.343-2.395 4.79-3.368 9.58-3.368 17.963 0 6.212.224 31.621.224 40.004 0 6.474.225 8.607.973 9.355.711.711 2.62.711 10.067 1.198.973 0 .711 4.79-.225 4.79-19.647-.225-48.611-.225-62.757.224-.673-.299-.673-5.089.038-5.089Z" fill="#203864" fill-opacity=".7"/><path d="M1103.48 631.247c-32.33 0-52.43-10.553-52.43-25.147 0-8.383 7.19-15.568 22.98-22.042-10.07-3.593-15.34-10.067-15.34-17.963 0-5.501 2.39-10.066 6.21-14.145 4.08-4.079 10.55-8.383 17.74-12.2-14.6-5.014-25.64-15.081-25.38-30.648 0-7.185 2.62-14.146 8.39-19.871 8.6-8.383 23.72-14.595 43.59-14.857h2.17c3.11-6.698 6.7-16.279 13.66-23.239 4.79-4.79 10.29-7.896 19.16-7.896 12.2 0 17.97 7.185 17.97 14.595 0 7.185-5.51 11.75-12.2 11.75-3.37 0-5.99-.973-8.16-2.881-4.79-4.79-1.69-11.975-3.82-14.146-1.91-1.908-5.99-1.684-11 3.368-4.08 4.079-7.41 10.778-10.07 18.674 15.57 1.422 29.72 7.671 36.41 14.37 5.28 5.276 7.68 10.777 7.68 19.16 0 8.607-3.82 15.343-9.58 21.068-8.61 8.607-26.09 14.857-43.83 14.595-6.21 0-12.68-.711-18.67-2.171-8.87 4.79-11.75 7.896-11.75 9.805 0 2.17 2.4 3.593 9.36 4.79 9.8 1.422 22.04 2.395 40.22 4.304 20.36 1.684 30.88 5.276 36.9 11.264 4.31 4.303 6.96 10.553 6.96 17.738 0 9.58-3.36 16.54-9.58 22.528-11.86 12.012-33.41 19.197-57.59 19.197Zm36.37-15.081c3.37-3.106 4.8-6.96 4.8-11.488 0-7.185-5.02-11.003-16.28-12.687-13.89-1.684-24.18-2.881-42.89-5.276-1.91-.225-3.82-.487-5.5-.973-11.49 5.763-16.05 11.264-16.05 18.674 0 12.686 14.85 21.33 40.71 21.33 18.71 0 29.71-4.079 35.21-9.58Zm-17.21-129.817c-2.17-4.079-5.99-6.698-13.4-6.698-11 0-16.27 10.066-16.27 30.424 0 11.975 1.19 18.187 3.1 22.266 2.17 4.303 5.5 6.96 12.69 6.96 11.75 0 16.28-11.002 16.28-29.937 0-13.173-.75-19.422-2.4-23.015ZM598.358 642.549c1.422 0 2.882-1.197 14.857-13.883.711-.711 4.079-.487 4.079.711-.973 16.278-1.198 46.478-.973 58.902 0 .973-4.079.973-4.304 0-7.896-18.187-16.054-34.017-23.95-41.913-6.474-6.212-13.172-10.291-24.174-10.291-13.398 0-20.844 6.961-24.923 15.081-5.277 10.553-8.158 26.121-8.158 55.085 0 22.528 2.395 36.412 7.409 46.217 5.277 11.002 15.343 17.476 30.911 17.476 12.199 0 22.977-4.79 30.162-12.2 8.382-8.158 13.883-19.871 16.278-32.333.487-.973 5.763.487 5.277 1.423-2.62 14.145-8.158 26.345-18.187 36.149-9.805 10.067-24.175 16.279-44.794 16.279-23.95 0-43.111-7.896-56.77-21.78-11.975-11.975-19.871-28.515-19.871-49.584 0-20.358 6.699-38.545 20.844-52.69 14.37-14.595 33.531-25.859 58.192-25.859 23.501.038 35.962 13.21 38.095 13.21ZM727.203 762.037c-11.002 11.002-27.056 17.962-44.532 17.962-18.674 0-36.15-8.607-46.703-19.16-8.607-8.607-13.884-19.646-13.884-34.465 0-14.146 5.501-26.121 15.568-36.15 11.488-11.489 28.515-18.936 46.927-18.936 17.963 0 33.044 7.41 43.821 18.188 10.067 10.066 14.857 22.977 14.857 36.898 0 14.594-6.699 26.345-16.054 35.663Zm-29.189-77.838c-2.62-5.276-6.474-7.896-13.659-7.896-7.896 0-12.686 4.304-15.081 9.58-3.368 6.474-5.015 17.963-5.015 40.715 0 38.32 6.699 48.387 18.674 48.387 7.185 0 11.002-2.882 13.883-8.383 3.106-6.212 5.015-16.278 5.015-49.322 0-18.935-1.198-28.029-3.817-33.081Z" fill="#203864" fill-opacity=".7"/><path d="M791.419 621.48c1.684 0 2.17.973 2.17 2.62-.224 25.148-.224 48.387-.224 74.47 0 24.923-.225 45.28-.487 62.495 0 6.474.711 8.607 1.684 9.804.711.711 2.171.973 14.146 1.422.486 0 .711 5.015-.225 5.015-21.33-.711-45.73-.711-67.996-.711-.711 0-.711-4.79 0-4.79 10.778 0 12.948-.225 13.659-.973.711-.711.973-2.171.973-6.474.225-11.264.711-33.044.711-48.125 0-33.306 0-56.058-.224-80.944-.225-5.501-.225-7.185-.973-7.896-.711-.711-2.171-.973-14.146-1.197-.973-.225-.711-4.79.225-4.79 13.809.074 36.075.299 50.707.074Z" fill="#203864" fill-opacity=".7"/><path d="M854.887 621.48c1.684 0 2.171.973 2.171 2.62-.225 25.148-.225 48.387-.225 74.47 0 24.923-.224 45.28-.486 62.495 0 6.474.711 8.607 1.684 9.804.711.711 2.17.973 14.145 1.422.487 0 .711 5.015-.224 5.015-21.331-.711-45.73-.711-67.996-.711-.711 0-.711-4.79 0-4.79 10.777 0 12.948-.225 13.659-.973.711-.711.973-2.171.973-6.474.224-11.264.711-33.044.711-48.125 0-33.306 0-56.058-.225-80.944-.224-5.501-.224-7.185-.973-7.896-.711-.711-2.17-.973-14.145-1.197-.973-.225-.711-4.79.224-4.79 13.809.074 36.075.299 50.707.074ZM980.138 747.667c-8.607 22.266-27.318 32.332-47.414 32.332-20.133 0-38.058-7.671-48.835-18.449-8.869-8.869-14.146-19.16-14.146-35.214 0-13.172 5.763-26.345 15.343-35.925 11.489-11.488 25.859-19.16 44.308-19.16 16.765 0 29.226 6.212 38.32 15.081 8.158 8.158 13.883 20.582 14.145 38.096 0 1.422-.486 1.908-1.422 1.908-43.334 0-61.072.225-70.652.711.224 16.541 1.908 25.859 5.276 32.333 4.079 8.382 11.975 12.948 24.437 12.948 14.856 0 27.542-8.383 35.925-27.056 1.122-.936 4.94 1.197 4.715 2.395Zm-64.665-63.917c-3.593 6.96-4.79 17.738-5.501 37.609l34.952-.486c-.711-33.044-5.015-44.533-17.252-44.533-6.212-.037-10.291 3.555-12.199 7.41ZM996.903 762.299c-8.869-8.869-14.856-20.133-14.856-35.7 0-13.397 4.79-25.634 15.792-36.861 10.781-10.777 26.571-18.673 46.701-18.673 27.32 0 43.82 14.145 43.82 30.648 0 12.462-8.6 20.133-18.45 20.133-9.8 0-17.25-7.185-17.25-15.792 0-4.565 1.2-8.158 4.08-11.002 5.76-5.763 14.6-4.079 16.05-5.501 2.4-2.395-7.67-12.199-23.46-12.199-10.55 0-16.54 4.565-19.87 11.264-3.82 7.896-5.5 18.673-5.5 36.149 0 19.385.97 28.254 4.3 35.214 3.6 6.961 9.81 11.489 21.07 11.489 12.69 0 26.12-7.896 34.02-28.029.71-1.422 5.5.973 5.01 2.395-8.16 21.33-24.17 34.016-46.92 34.016-17.48-.074-33.53-6.548-44.537-17.551Z" fill="#203864" fill-opacity=".7"/><path d="M1135.07 779.064c-12.69 0-21.78-3.368-28.03-9.805-5.5-5.276-8.39-11.75-8.39-25.858 0-13.659.49-42.399 1.2-62.271-1.42-.224-12.2-.224-14.59-.224-1.2 0-.98-5.501 0-5.501 16.28-.711 23.95-4.079 32.82-13.173 5.5-5.276 11.48-15.081 14.85-23.95.49-1.197 4.79-.711 5.02.487-.23 7.671-.98 28.253-1.2 36.411h28.03c1.2-.224.97 5.988-.23 5.988-13.39-.225-24.43 0-27.76.224-.49 8.869-.98 41.651-.98 65.639 0 11.488.49 14.594 1.69 17.251 1.42 2.882 4.3 4.79 8.38 4.79 6.96 0 13.17-7.896 16.99-26.345.22-.973 5.28.225 5.01 1.422-4.07 22.94-13.17 34.915-32.81 34.915Z" fill="#203864" fill-opacity=".7"/><path d="M1162.16 776.894c-.71 0-.71-4.79 0-4.79 10.07-.225 14.37-.225 15.08-1.198.71-.711.97-3.106 1.2-9.804.22-7.41.22-13.884.22-22.266 0-9.356-.48-40.94-.97-51.007 0-3.817-.49-6.212-1.2-6.96-.71-.711-2.62-.973-15.08-1.198-.49 0-.71-4.79 0-4.79 14.86-.224 39.74-.224 51.27-.224 2.17 0 2.62.711 2.62 2.395v67.06c0 21.331.97 26.121 1.91 26.832.71.973 2.62 1.197 13.39 1.422.98 0 1.2 4.79.23 4.79-4.98-.038-65.08-.262-68.67-.262Zm33.04-119.975c-12.95 0-20.58-9.58-20.58-19.16 0-5.277 1.91-9.58 5.5-12.948 3.59-3.817 9.36-6.474 17.96-6.474 11.49 0 20.36 7.671 20.36 17.738-.04 11.975-11.04 20.844-23.24 20.844ZM1219.15 674.882c19.65-.487 45.51.224 67.06 0 1.42 0 1.42 4.79.49 4.79-10.55.486-11.75.486-12.69 1.197-.71.973-.22 3.593 3.11 12.686 5.5 16.765 13.66 40.491 19.87 58.678h.49c5.98-16.541 11.75-31.846 16.54-45.992 2.88-9.093 3.59-14.594 3.59-17.251 0-5.763-2.62-7.896-12.46-9.805-.97-.224-.97-4.565.22-4.565 15.35.224 28.03.486 37.61.486.97 0 1.2 4.566.23 4.79-6.22.973-8.61 2.171-11.27 4.79-3.81 3.817-7.18 9.58-11 19.871-6.7 17.738-18.45 49.809-27.28 73.048-.71 1.422-1.42 2.395-13.17 2.395-11.01 0-11.49-.486-12.2-1.909-9.36-27.542-22.76-63.243-30.16-81.654-4.31-10.291-5.99-13.397-7.19-14.595-1.2-1.197-2.88-1.684-11.97-1.909-.79-.037-.79-5.051.18-5.051ZM1442.11 747.667c-8.6 22.266-27.32 32.332-47.41 32.332-20.13 0-38.06-7.671-48.84-18.449-8.87-8.869-14.14-19.16-14.14-35.214 0-13.172 5.76-26.345 15.34-35.925 11.49-11.488 25.86-19.16 44.31-19.16 16.76 0 29.23 6.212 38.32 15.081 8.16 8.158 13.88 20.582 14.14 38.096 0 1.422-.48 1.908-1.42 1.908-43.33 0-61.07.225-70.65.711.22 16.541 1.91 25.859 5.28 32.333 4.07 8.382 11.97 12.948 24.43 12.948 14.86 0 27.54-8.383 35.93-27.056 1.12-.936 4.94 1.197 4.71 2.395Zm-64.66-63.917c-3.6 6.96-4.79 17.738-5.5 37.609l34.95-.486c-.71-33.044-5.02-44.533-17.25-44.533-6.22-.037-10.29 3.555-12.2 7.41Z" fill="#203864" fill-opacity=".7"/></svg>