<svg width="504" height="28" viewBox="0 0 504 28" fill="none" xmlns="http://www.w3.org/2000/svg">
<path d="M14.058 27.7336L8.50489 17.6471H6.94544V27.7336H0.441406V1.01392H11.3575C13.4622 1.01392 15.2498 1.38186 16.7205 2.11772C18.2166 2.85359 19.3323 3.86858 20.0676 5.1627C20.803 6.43144 21.1706 7.85243 21.1706 9.42567C21.1706 11.2019 20.6635 12.7878 19.6492 14.1834C18.6603 15.5791 17.1896 16.5687 15.2371 17.1523L21.3989 27.7336H14.058ZM6.94544 13.0416H10.9772C12.169 13.0416 13.0564 12.7498 13.6397 12.1661C14.2482 11.5825 14.5525 10.7578 14.5525 9.6921C14.5525 8.67711 14.2482 7.8778 13.6397 7.29418C13.0564 6.71056 12.169 6.41875 10.9772 6.41875H6.94544V13.0416Z" fill="#203864"/>
<path d="M49.482 23.0139H39.5167L37.9192 27.7336H31.1109L40.7719 1.01392H48.3029L57.9638 27.7336H51.0795L49.482 23.0139ZM47.8084 17.9897L44.4994 8.20768L41.2283 17.9897H47.8084Z" fill="#203864"/>
<path d="M67.4082 14.3357C67.4082 11.6967 67.9787 9.34954 69.1198 7.29418C70.2608 5.21345 71.8456 3.60215 73.8742 2.46029C75.9281 1.29304 78.2483 0.709424 80.8347 0.709424C84.0043 0.709424 86.7174 1.54679 88.9742 3.22153C91.231 4.89627 92.7397 7.18 93.5004 10.0727H86.3498C85.8173 8.95623 85.0566 8.10618 84.0676 7.52256C83.1041 6.93894 82.0011 6.64713 80.7586 6.64713C78.7554 6.64713 77.1326 7.34493 75.8901 8.74055C74.6476 10.1362 74.0263 12.0012 74.0263 14.3357C74.0263 16.6702 74.6476 18.5352 75.8901 19.9308C77.1326 21.3264 78.7554 22.0243 80.7586 22.0243C82.0011 22.0243 83.1041 21.7324 84.0676 21.1488C85.0566 20.5652 85.8173 19.7151 86.3498 18.5987H93.5004C92.7397 21.4914 91.231 23.7751 88.9742 25.4499C86.7174 27.0992 84.0043 27.9239 80.8347 27.9239C78.2483 27.9239 75.9281 27.353 73.8742 26.2111C71.8456 25.0439 70.2608 23.4326 69.1198 21.3772C67.9787 19.3218 67.4082 16.9747 67.4082 14.3357Z" fill="#203864"/>
<path d="M111.595 1.01392V27.7336H105.09V1.01392H111.595Z" fill="#203864"/>
<path d="M147.801 27.7336H141.297L130.419 11.2527V27.7336H123.915V1.01392H130.419L141.297 17.571V1.01392H147.801V27.7336Z" fill="#203864"/>
<path d="M177.847 9.46373C177.365 8.57561 176.668 7.90318 175.755 7.44643C174.868 6.96431 173.815 6.72325 172.598 6.72325C170.494 6.72325 168.808 7.42106 167.54 8.81667C166.272 10.1869 165.638 12.0266 165.638 14.3357C165.638 16.797 166.297 18.7255 167.616 20.1211C168.96 21.4914 170.798 22.1765 173.131 22.1765C174.728 22.1765 176.072 21.7705 177.163 20.9585C178.278 20.1465 179.09 18.9793 179.597 17.4568H171.343V12.661H185.492V18.7128C185.011 20.3368 184.186 21.8466 183.02 23.2422C181.879 24.6379 180.421 25.767 178.646 26.6298C176.871 27.4925 174.868 27.9239 172.636 27.9239C169.999 27.9239 167.641 27.353 165.562 26.2111C163.508 25.0439 161.898 23.4326 160.731 21.3772C159.59 19.3218 159.02 16.9747 159.02 14.3357C159.02 11.6967 159.59 9.34954 160.731 7.29418C161.898 5.21345 163.508 3.60215 165.562 2.46029C167.616 1.29304 169.961 0.709424 172.598 0.709424C175.793 0.709424 178.481 1.48335 180.662 3.03122C182.868 4.57908 184.326 6.72325 185.036 9.46373H177.847Z" fill="#203864"/>
<path d="M211.266 14.3357C211.266 11.6967 211.837 9.34954 212.978 7.29418C214.119 5.21345 215.704 3.60215 217.732 2.46029C219.786 1.29304 222.106 0.709424 224.693 0.709424C227.862 0.709424 230.576 1.54679 232.832 3.22153C235.089 4.89627 236.598 7.18 237.358 10.0727H230.208C229.675 8.95623 228.915 8.10618 227.926 7.52256C226.962 6.93894 225.859 6.64713 224.617 6.64713C222.613 6.64713 220.991 7.34493 219.748 8.74055C218.506 10.1362 217.884 12.0012 217.884 14.3357C217.884 16.6702 218.506 18.5352 219.748 19.9308C220.991 21.3264 222.613 22.0243 224.617 22.0243C225.859 22.0243 226.962 21.7324 227.926 21.1488C228.915 20.5652 229.675 19.7151 230.208 18.5987H237.358C236.598 21.4914 235.089 23.7751 232.832 25.4499C230.576 27.0992 227.862 27.9239 224.693 27.9239C222.106 27.9239 219.786 27.353 217.732 26.2111C215.704 25.0439 214.119 23.4326 212.978 21.3772C211.837 19.3218 211.266 16.9747 211.266 14.3357Z" fill="#203864"/>
<path d="M261.576 28C259.066 28 256.758 27.4164 254.654 26.2492C252.575 25.0819 250.914 23.4579 249.671 21.3772C248.454 19.2711 247.846 16.9112 247.846 14.2976C247.846 11.684 248.454 9.33685 249.671 7.25612C250.914 5.17539 252.575 3.5514 254.654 2.38416C256.758 1.21692 259.066 0.633301 261.576 0.633301C264.087 0.633301 266.381 1.21692 268.461 2.38416C270.565 3.5514 272.213 5.17539 273.405 7.25612C274.622 9.33685 275.231 11.684 275.231 14.2976C275.231 16.9112 274.622 19.2711 273.405 21.3772C272.188 23.4579 270.54 25.0819 268.461 26.2492C266.381 27.4164 264.087 28 261.576 28ZM261.576 22.0623C263.706 22.0623 265.405 21.3518 266.673 19.9308C267.966 18.5098 268.613 16.6321 268.613 14.2976C268.613 11.9378 267.966 10.06 266.673 8.66442C265.405 7.24343 263.706 6.53294 261.576 6.53294C259.421 6.53294 257.697 7.23074 256.403 8.62636C255.136 10.022 254.502 11.9124 254.502 14.2976C254.502 16.6575 255.136 18.5479 256.403 19.9689C257.697 21.3645 259.421 22.0623 261.576 22.0623Z" fill="#203864"/>
<path d="M292.96 22.7094H301.48V27.7336H286.456V1.01392H292.96V22.7094Z" fill="#203864"/>
<path d="M318.694 22.7094H327.214V27.7336H312.19V1.01392H318.694V22.7094Z" fill="#203864"/>
<path d="M344.427 6.22844V11.6333H353.137V16.6575H344.427V22.5191H354.278V27.7336H337.923V1.01392H354.278V6.22844H344.427Z" fill="#203864"/>
<path d="M365.005 14.3357C365.005 11.6967 365.575 9.34954 366.716 7.29418C367.857 5.21345 369.442 3.60215 371.471 2.46029C373.525 1.29304 375.845 0.709424 378.431 0.709424C381.601 0.709424 384.314 1.54679 386.571 3.22153C388.827 4.89627 390.336 7.18 391.097 10.0727H383.946C383.414 8.95623 382.653 8.10618 381.664 7.52256C380.701 6.93894 379.598 6.64713 378.355 6.64713C376.352 6.64713 374.729 7.34493 373.487 8.74055C372.244 10.1362 371.623 12.0012 371.623 14.3357C371.623 16.6702 372.244 18.5352 373.487 19.9308C374.729 21.3264 376.352 22.0243 378.355 22.0243C379.598 22.0243 380.701 21.7324 381.664 21.1488C382.653 20.5652 383.414 19.7151 383.946 18.5987H391.097C390.336 21.4914 388.827 23.7751 386.571 25.4499C384.314 27.0992 381.601 27.9239 378.431 27.9239C375.845 27.9239 373.525 27.353 371.471 26.2111C369.442 25.0439 367.857 23.4326 366.716 21.3772C365.575 19.3218 365.005 16.9747 365.005 14.3357Z" fill="#203864"/>
<path d="M421.895 1.01392V6.22844H414.82V27.7336H408.316V6.22844H401.242V1.01392H421.895Z" fill="#203864"/>
<path d="M439.27 1.01392V27.7336H432.766V1.01392H439.27Z" fill="#203864"/>
<path d="M476.656 1.01392L467.185 27.7336H459.045L449.575 1.01392H456.497L463.115 21.1869L469.771 1.01392H476.656Z" fill="#203864"/>
<path d="M493.485 6.22844V11.6333H502.195V16.6575H493.485V22.5191H503.336V27.7336H486.981V1.01392H503.336V6.22844H493.485Z" fill="#203864"/>
</svg>
