<svg width="92" height="64" viewBox="0 0 92 64" fill="none" xmlns="http://www.w3.org/2000/svg">
<path d="M5.44244 63.9548L4.49973 62.2425H4.23499V63.9548H3.13086V59.4189H4.984C5.34128 59.4189 5.64475 59.4813 5.89442 59.6062C6.14839 59.7312 6.3378 59.9035 6.46263 60.1232C6.58746 60.3385 6.64988 60.5798 6.64988 60.8469C6.64988 61.1484 6.56379 61.4176 6.3916 61.6545C6.22372 61.8915 5.97406 62.0595 5.6426 62.1585L6.68862 63.9548H5.44244ZM4.23499 61.4607H4.91943C5.12174 61.4607 5.2724 61.4112 5.37141 61.3121C5.47472 61.213 5.52638 61.073 5.52638 60.8921C5.52638 60.7198 5.47472 60.5841 5.37141 60.485C5.2724 60.3859 5.12174 60.3364 4.91943 60.3364H4.23499V61.4607Z" fill="#203864"/>
<path d="M11.456 63.1536H9.76434L9.49314 63.9548H8.33736L9.97741 59.4189H11.2559L12.8959 63.9548H11.7272L11.456 63.1536ZM11.1719 62.3007L10.6102 60.6401L10.0549 62.3007H11.1719Z" fill="#203864"/>
<path d="M14.4992 61.6804C14.4992 61.2324 14.5961 60.8339 14.7898 60.485C14.9835 60.1318 15.2525 59.8582 15.5969 59.6644C15.9456 59.4662 16.3394 59.3672 16.7785 59.3672C17.3166 59.3672 17.7772 59.5093 18.1603 59.7936C18.5434 60.0779 18.7995 60.4656 18.9287 60.9567H17.7148C17.6244 60.7672 17.4952 60.6229 17.3274 60.5238C17.1638 60.4247 16.9765 60.3752 16.7656 60.3752C16.4255 60.3752 16.15 60.4936 15.9391 60.7305C15.7282 60.9675 15.6227 61.2841 15.6227 61.6804C15.6227 62.0767 15.7282 62.3933 15.9391 62.6302C16.15 62.8671 16.4255 62.9856 16.7656 62.9856C16.9765 62.9856 17.1638 62.9361 17.3274 62.837C17.4952 62.7379 17.6244 62.5936 17.7148 62.4041H18.9287C18.7995 62.8951 18.5434 63.2828 18.1603 63.5671C17.7772 63.8471 17.3166 63.9871 16.7785 63.9871C16.3394 63.9871 15.9456 63.8902 15.5969 63.6964C15.2525 63.4982 14.9835 63.2247 14.7898 62.8758C14.5961 62.5268 14.4992 62.1284 14.4992 61.6804Z" fill="#203864"/>
<path d="M22.0004 59.4189V63.9548H20.8962V59.4189H22.0004Z" fill="#203864"/>
<path d="M28.1468 63.9548H27.0427L25.196 61.157V63.9548H24.0919V59.4189H25.196L27.0427 62.2296V59.4189H28.1468V63.9548Z" fill="#203864"/>
<path d="M33.2475 60.8533C33.1657 60.7025 33.0473 60.5884 32.8924 60.5109C32.7417 60.429 32.5631 60.3881 32.3564 60.3881C31.9992 60.3881 31.7129 60.5065 31.4977 60.7435C31.2824 60.9761 31.1748 61.2884 31.1748 61.6804C31.1748 62.0982 31.2867 62.4256 31.5106 62.6625C31.7387 62.8951 32.0508 63.0114 32.4468 63.0114C32.718 63.0114 32.9462 62.9425 33.1313 62.8047C33.3207 62.6668 33.4584 62.4687 33.5445 62.2102H32.1434V61.3961H34.5453V62.4235C34.4636 62.6991 34.3237 62.9554 34.1256 63.1924C33.9319 63.4293 33.6844 63.621 33.3831 63.7674C33.0818 63.9139 32.7417 63.9871 32.3629 63.9871C31.9152 63.9871 31.5149 63.8902 31.1619 63.6964C30.8132 63.4982 30.5399 63.2247 30.3419 62.8758C30.1482 62.5268 30.0513 62.1284 30.0513 61.6804C30.0513 61.2324 30.1482 60.8339 30.3419 60.485C30.5399 60.1318 30.8132 59.8582 31.1619 59.6644C31.5106 59.4662 31.9088 59.3672 32.3564 59.3672C32.8988 59.3672 33.3551 59.4986 33.7253 59.7613C34.0998 60.0241 34.3473 60.3881 34.4679 60.8533H33.2475Z" fill="#203864"/>
<path d="M38.9208 61.6804C38.9208 61.2324 39.0176 60.8339 39.2113 60.485C39.405 60.1318 39.6741 59.8582 40.0184 59.6644C40.3671 59.4662 40.761 59.3672 41.2001 59.3672C41.7381 59.3672 42.1987 59.5093 42.5818 59.7936C42.9649 60.0779 43.2211 60.4656 43.3502 60.9567H42.1363C42.0459 60.7672 41.9168 60.6229 41.7489 60.5238C41.5853 60.4247 41.3981 60.3752 41.1871 60.3752C40.8471 60.3752 40.5716 60.4936 40.3607 60.7305C40.1497 60.9675 40.0443 61.2841 40.0443 61.6804C40.0443 62.0767 40.1497 62.3933 40.3607 62.6302C40.5716 62.8671 40.8471 62.9856 41.1871 62.9856C41.3981 62.9856 41.5853 62.9361 41.7489 62.837C41.9168 62.7379 42.0459 62.5936 42.1363 62.4041H43.3502C43.2211 62.8951 42.9649 63.2828 42.5818 63.5671C42.1987 63.8471 41.7381 63.9871 41.2001 63.9871C40.761 63.9871 40.3671 63.8902 40.0184 63.6964C39.6741 63.4982 39.405 63.2247 39.2113 62.8758C39.0176 62.5268 38.9208 62.1284 38.9208 61.6804Z" fill="#203864"/>
<path d="M47.4614 64.0001C47.0353 64.0001 46.6436 63.901 46.2863 63.7028C45.9333 63.5047 45.6514 63.229 45.4404 62.8758C45.2338 62.5182 45.1305 62.1176 45.1305 61.6739C45.1305 61.2302 45.2338 60.8318 45.4404 60.4785C45.6514 60.1253 45.9333 59.8496 46.2863 59.6515C46.6436 59.4533 47.0353 59.3542 47.4614 59.3542C47.8876 59.3542 48.2772 59.4533 48.6302 59.6515C48.9874 59.8496 49.2672 60.1253 49.4696 60.4785C49.6762 60.8318 49.7795 61.2302 49.7795 61.6739C49.7795 62.1176 49.6762 62.5182 49.4696 62.8758C49.2629 63.229 48.9831 63.5047 48.6302 63.7028C48.2772 63.901 47.8876 64.0001 47.4614 64.0001ZM47.4614 62.9921C47.823 62.9921 48.1114 62.8714 48.3267 62.6302C48.5462 62.389 48.656 62.0702 48.656 61.6739C48.656 61.2733 48.5462 60.9545 48.3267 60.7176C48.1114 60.4764 47.823 60.3558 47.4614 60.3558C47.0956 60.3558 46.8028 60.4742 46.5833 60.7112C46.3681 60.9481 46.2605 61.269 46.2605 61.6739C46.2605 62.0745 46.3681 62.3955 46.5833 62.6367C46.8028 62.8736 47.0956 62.9921 47.4614 62.9921Z" fill="#203864"/>
<path d="M52.7893 63.1019H54.2356V63.9548H51.6851V59.4189H52.7893V63.1019Z" fill="#203864"/>
<path d="M57.1578 63.1019H58.6041V63.9548H56.0536V59.4189H57.1578V63.1019Z" fill="#203864"/>
<path d="M61.5263 60.3041V61.2216H63.0049V62.0745H61.5263V63.0696H63.1986V63.9548H60.4222V59.4189H63.1986V60.3041H61.5263Z" fill="#203864"/>
<path d="M65.0196 61.6804C65.0196 61.2324 65.1164 60.8339 65.3101 60.485C65.5039 60.1318 65.7729 59.8582 66.1173 59.6644C66.4659 59.4662 66.8598 59.3672 67.2989 59.3672C67.837 59.3672 68.2975 59.5093 68.6807 59.7936C69.0638 60.0779 69.3199 60.4656 69.449 60.9567H68.2351C68.1447 60.7672 68.0156 60.6229 67.8477 60.5238C67.6841 60.4247 67.4969 60.3752 67.286 60.3752C66.9459 60.3752 66.6704 60.4936 66.4595 60.7305C66.2486 60.9675 66.1431 61.2841 66.1431 61.6804C66.1431 62.0767 66.2486 62.3933 66.4595 62.6302C66.6704 62.8671 66.9459 62.9856 67.286 62.9856C67.4969 62.9856 67.6841 62.9361 67.8477 62.837C68.0156 62.7379 68.1447 62.5936 68.2351 62.4041H69.449C69.3199 62.8951 69.0638 63.2828 68.6807 63.5671C68.2975 63.8471 67.837 63.9871 67.2989 63.9871C66.8598 63.9871 66.4659 63.8902 66.1173 63.6964C65.7729 63.4982 65.5039 63.2247 65.3101 62.8758C65.1164 62.5268 65.0196 62.1284 65.0196 61.6804Z" fill="#203864"/>
<path d="M74.6773 59.4189V60.3041H73.4763V63.9548H72.3722V60.3041H71.1712V59.4189H74.6773Z" fill="#203864"/>
<path d="M77.627 59.4189V63.9548H76.5228V59.4189H77.627Z" fill="#203864"/>
<path d="M83.9736 59.4189L82.3658 63.9548H80.9841L79.3763 59.4189H80.5515L81.675 62.8435L82.8049 59.4189H83.9736Z" fill="#203864"/>
<path d="M86.8306 60.3041V61.2216H88.3092V62.0745H86.8306V63.0696H88.5029V63.9548H85.7265V59.4189H88.5029V60.3041H86.8306Z" fill="#203864"/>
<path fill-rule="evenodd" clip-rule="evenodd" d="M87.6539 2.08795C83.681 6.31592 83.1968 6.71502 82.725 6.71502C82.561 6.71502 82.213 6.47929 81.6781 6.11691C81.678 6.11686 81.6779 6.1168 81.6779 6.11675L81.6775 6.1165C81.2342 5.8162 80.6626 5.42899 79.961 5.01694C77.8553 3.78023 74.5788 2.31963 70.0862 2.31245C63.2297 2.31245 57.6548 4.94894 53.2229 8.66576C53.9547 10.2018 54.3234 11.9556 54.3234 13.8517C54.3234 18.4858 51.9742 22.0518 48.4172 24.5169C47.0751 25.4471 45.5558 26.2271 43.9085 26.8661C43.8977 27.0662 43.8889 27.2671 43.8821 27.4686C44.9293 27.9288 45.8878 28.4654 46.7567 29.0996C49.7258 31.2666 51.4045 34.3797 52.3076 38.6807C53.0392 42.1572 53.4559 43.8967 53.8459 44.7975C53.8598 44.8296 53.8731 44.8591 53.8857 44.8862C53.9755 44.7822 54.095 44.6203 54.2403 44.3725C54.7409 43.5181 55.3015 42.017 55.7979 39.632L55.8771 39.2514L56.0959 38.9301C56.5842 38.2132 57.3172 38.0765 57.5166 38.0443C57.8066 37.9976 58.0651 38.012 58.2297 38.0284C58.5765 38.063 58.9241 38.1514 59.2121 38.2478C59.4934 38.342 59.847 38.4868 60.1677 38.6952C60.319 38.7934 60.5704 38.974 60.7923 39.2559C61.0001 39.5199 61.3851 40.1469 61.2114 40.9839C60.4953 44.616 59.309 47.6475 57.2678 49.8141C60.7271 51.415 64.7498 52.2748 69.2917 52.2748C76.1325 52.2748 80.9 50.2045 84.1528 46.8496C87.4801 43.5819 89.3176 39.5161 90.1866 34.8017C90.2852 34.6113 89.6704 34.3557 89.1401 34.2595C89.1356 34.2587 89.1312 34.2578 89.1267 34.2571C89.1232 34.2564 89.1197 34.2558 89.1163 34.2552C89.1159 34.2552 89.1154 34.2551 89.115 34.255C89.1137 34.2548 89.1123 34.2546 89.111 34.2543C89.0778 34.2486 89.0449 34.2436 89.0126 34.2393L89.0119 34.2392C88.9897 34.2362 88.9677 34.2335 88.9461 34.2312C88.6921 34.2043 88.4865 34.2265 88.4361 34.3278C87.6415 38.4809 85.8164 42.3846 83.0354 45.1035C80.6517 47.5729 77.0761 49.1693 73.0287 49.1693C67.8639 49.1693 64.5242 47.0117 62.7736 43.345C61.11 40.0773 60.3154 35.4503 60.3154 27.9422C60.3154 18.2889 61.2714 13.1006 63.0219 9.58356C64.3752 6.87716 66.8458 4.55739 71.2905 4.55739C74.9406 4.55739 77.163 5.91682 79.3108 7.98716C81.9304 10.6187 84.637 15.8943 87.2566 21.9557C87.3311 22.2799 88.6844 22.2799 88.6844 21.9557C88.6099 17.815 88.6844 7.75019 89.0072 2.32492C89.0072 1.92582 87.8898 1.85099 87.6539 2.08795Z" fill="#203864"/>
<path fill-rule="evenodd" clip-rule="evenodd" d="M89.1163 34.2552C89.1159 34.2552 89.1154 34.2551 89.115 34.255C89.1189 34.2557 89.1228 34.2564 89.1267 34.2571C89.1232 34.2564 89.1197 34.2558 89.1163 34.2552Z" fill="white"/>
<path fill-rule="evenodd" clip-rule="evenodd" d="M24.033 50.607C24.0306 50.607 24.0282 50.607 24.0259 50.6069C23.9857 50.6063 23.9454 50.6057 23.9051 50.6051C23.9478 50.6057 23.9904 50.6064 24.033 50.607ZM3.03925 50.6336C3.04076 50.6335 3.04227 50.6335 3.04378 50.6335ZM33.4724 25.1612L33.4726 25.161C33.4771 25.1587 33.4815 25.1563 33.4859 25.154C33.4814 25.1564 33.4769 25.1588 33.4724 25.1612ZM30.049 26.0903L30.0497 26.0902L30.0501 26.0902C30.0497 26.0902 30.0494 26.0903 30.049 26.0903Z" fill="white"/>
<path fill-rule="evenodd" clip-rule="evenodd" d="M55.4461 48.8734C53.5959 47.813 51.9304 46.52 50.4576 45.0162C46.7023 41.2438 44.1561 36.1119 43.8885 29.6311C43.9619 29.6685 44.0347 29.7063 44.1067 29.7446C43.6243 29.4884 43.1121 29.2528 42.5684 29.0351C42.7008 36.151 45.4278 41.8072 49.5315 45.9315C50.9703 47.4 52.5793 48.6744 54.3489 49.7393C54.7383 49.4816 55.1035 49.193 55.4461 48.8734ZM57.4495 41.1838L57.4519 41.1739C57.4549 41.1616 57.4579 41.1493 57.4609 41.137C57.4571 41.1527 57.4533 41.1683 57.4495 41.1838ZM59.139 41.354C59.1385 41.3564 59.1379 41.3588 59.1374 41.3612C59.1343 41.3755 59.1311 41.3897 59.1279 41.4039C59.1316 41.3873 59.1353 41.3707 59.139 41.354ZM44.1123 24.6699C43.6665 24.8647 43.2072 25.0483 42.7354 25.2204C43.3561 19.4384 45.6681 14.2223 49.8545 10.0151C50.2545 9.60715 50.6658 9.20626 51.0885 8.81392C51.3192 9.1981 51.5202 9.60542 51.6903 10.0347C51.3808 10.3286 51.0775 10.6274 50.7804 10.9305C46.9879 14.7403 44.8089 19.4298 44.1123 24.6699Z" fill="white"/>
<path fill-rule="evenodd" clip-rule="evenodd" d="M49.5315 45.9315C50.9703 47.4 52.5793 48.6744 54.3489 49.7393C54.7383 49.4816 55.1035 49.193 55.4461 48.8734C53.5959 47.813 51.9304 46.52 50.4576 45.0162C46.7023 41.2438 44.1561 36.1119 43.8885 29.6311C43.4705 29.4184 43.0308 29.2203 42.5684 29.0351C42.7008 36.151 45.4278 41.8072 49.5315 45.9315ZM42.7354 25.2204C43.2072 25.0483 43.6665 24.8647 44.1123 24.6699C44.8089 19.4298 46.9879 14.7403 50.7804 10.9305C51.0775 10.6274 51.3808 10.3286 51.6903 10.0347C51.5202 9.60542 51.3192 9.1981 51.0885 8.81392C50.6658 9.20626 50.2545 9.60715 49.8545 10.0151C45.6681 14.2223 43.3561 19.4384 42.7354 25.2204Z" fill="white"/>
<path d="M15.7621 2.03284C18.7045 2.03284 27.6063 1.95801 30.7722 1.95801C39.674 1.95801 46.2665 3.62924 49.9166 7.30845C51.5058 8.90485 52.3748 11.1373 52.3748 13.8562C52.3748 21.6012 44.6649 25.904 34.981 26.9517V27.1886C44.4414 28.6229 48.7247 31.1048 50.4008 39.0868C51.8286 45.8715 52.2258 46.9815 53.9019 46.9815C55.2552 46.9815 56.6829 44.986 57.7134 40.0347C57.8748 39.7977 59.3771 40.2717 59.3026 40.5959C57.8748 47.8546 54.6965 51.3716 48.0171 51.3716C44.2801 51.3716 41.3376 50.4113 39.5126 48.5031C37.1288 46.1085 35.8625 42.8409 34.5837 35.5697C33.2304 29.022 31.9641 27.912 28.0656 27.912H23.9313C23.6085 27.912 23.5341 27.9868 23.5341 28.2363C23.4596 34.6219 23.4596 44.1255 23.4596 45.8715C23.4596 47.7049 23.4596 48.2661 23.6955 48.5031C23.9313 48.7401 24.6514 48.8274 29.8162 48.977C30.139 48.977 30.139 50.7356 29.8162 50.7356C24.7259 50.5734 11.1436 50.4113 2.1673 50.6607C1.93141 50.6607 1.84451 48.9022 2.1673 48.9022C6.93478 48.8274 7.80386 48.7401 8.05216 48.5031C8.28805 48.1788 8.44945 47.1437 8.44945 44.9112C8.44945 33.3373 8.61085 27.1886 8.61085 24.3949C8.61085 17.5354 8.53636 9.30395 8.53636 7.86968C8.53636 4.83901 8.30047 4.27778 8.13907 4.04081C7.90318 3.80385 7.41898 3.80385 2.17972 3.71654C1.94383 3.71654 1.85692 2.04531 2.25421 2.04531H15.7621V2.03284ZM23.472 6.58508C23.472 8.58058 23.5465 17.0365 23.5465 22.9482C23.5465 25.4176 23.5465 25.8167 23.621 26.0662C23.7824 26.2283 24.5769 26.2283 27.2711 26.2283C31.9641 26.2283 34.4223 25.3553 35.6142 22.9607C36.4087 21.3643 36.7315 19.1318 36.7315 14.1805C36.7315 10.8255 36.4087 8.51822 35.6142 6.92182C34.4968 4.76418 32.3613 3.80385 27.6684 3.80385C24.2541 3.80385 23.7699 3.80385 23.621 3.87868C23.472 4.02834 23.472 4.50227 23.472 6.58508Z" fill="#203864"/>
</svg>
